<svg width="117" height="94" viewBox="0 0 117 94" fill="none" xmlns="http://www.w3.org/2000/svg">
<rect width="117" height="94" fill="#242629"/>
<path d="M9.5 17.5H107.5V86.5H9.5V17.5Z" fill="#C4C4C4"/>
<rect x="23" y="1" width="17" height="8" stroke="#C4C4C4" stroke-width="2"/>
<path d="M80.5 1H97.5V9H80.5V1Z" stroke="#C4C4C4" stroke-width="2"/>
<path d="M49.9195 52.7C51.9862 53.3 53.5695 54.35 54.6695 55.85C55.8029 57.3167 56.3695 59.1333 56.3695 61.3C56.3695 64.4333 55.1862 66.9 52.8195 68.7C50.4529 70.5 47.2362 71.4 43.1695 71.4C40.7029 71.4 38.3362 71.05 36.0695 70.35C33.8029 69.6167 31.9695 68.6333 30.5695 67.4L33.0695 61.8C36.2362 64.1 39.4862 65.25 42.8195 65.25C44.9862 65.25 46.5529 64.8833 47.5195 64.15C48.5195 63.3833 49.0195 62.1833 49.0195 60.55C49.0195 58.9833 48.5195 57.85 47.5195 57.15C46.5529 56.4167 44.9862 56.05 42.8195 56.05H37.7195V49.95H41.9695C44.0362 49.95 45.5695 49.6 46.5695 48.9C47.5695 48.1667 48.0695 47.0667 48.0695 45.6C48.0695 44.1333 47.6195 43.0167 46.7195 42.25C45.8529 41.4833 44.6029 41.1 42.9695 41.1C41.4362 41.1 39.8695 41.4 38.2695 42C36.6695 42.5667 35.1029 43.4167 33.5695 44.55L31.0695 38.95C32.5029 37.7167 34.3362 36.75 36.5695 36.05C38.8029 35.3167 41.1029 34.95 43.4695 34.95C45.8695 34.95 47.9695 35.35 49.7695 36.15C51.6029 36.95 53.0029 38.0667 53.9695 39.5C54.9695 40.9333 55.4695 42.6167 55.4695 44.55C55.4695 46.4833 54.9862 48.1667 54.0195 49.6C53.0529 51 51.6862 52.0333 49.9195 52.7ZM87.35 64.75V71H64.15V64.75H71.85V44.1L64.65 48.35V41.5L75.1 35.4H79.65V64.75H87.35Z" fill="#242629"/>
</svg>
