<svg width="64" height="59" viewBox="0 0 64 59" fill="none" xmlns="http://www.w3.org/2000/svg">
<path fill-rule="evenodd" clip-rule="evenodd" d="M0.0608115 2.49921C0.0943586 1.1189 1.24051 0.0271422 2.62082 0.0606894L11.6538 0.280229C13.0341 0.313776 14.1259 1.45993 14.0923 2.84023C14.0588 4.22054 12.9126 5.3123 11.5323 5.27875L2.49933 5.05921C1.11903 5.02567 0.0272643 3.87951 0.0608115 2.49921Z" fill="#FA7E77"/>
<path fill-rule="evenodd" clip-rule="evenodd" d="M11.4263 1.00611C12.7576 0.640007 14.1336 1.42244 14.4997 2.75373L24.174 37.9327C24.5401 39.264 23.7576 40.64 22.4263 41.0061C21.095 41.3722 19.719 40.5898 19.3529 39.2585L9.67871 4.07952C9.3126 2.74823 10.095 1.37222 11.4263 1.00611Z" fill="#FA7E77"/>
<path fill-rule="evenodd" clip-rule="evenodd" d="M63.5158 12.9078C63.5158 14.2885 62.3965 15.4078 61.0158 15.4078L16.5337 15.4078C15.153 15.4078 14.0337 14.2885 14.0337 12.9078C14.0337 11.5271 15.153 10.4078 16.5337 10.4078L61.0158 10.4078C62.3965 10.4078 63.5158 11.5271 63.5158 12.9078Z" fill="#FA7E77"/>
<path fill-rule="evenodd" clip-rule="evenodd" d="M57.6315 39.6704C57.6425 38.2898 56.5321 37.1616 55.1515 37.1506L22.0357 36.8871C20.655 36.8761 19.5269 37.9865 19.5159 39.3671C19.5049 40.7478 20.6153 41.876 21.9959 41.8869L55.1117 42.1505C56.4923 42.1614 57.6205 41.0511 57.6315 39.6704Z" fill="#FA7E77"/>
<path fill-rule="evenodd" clip-rule="evenodd" d="M57.5263 46.6789C57.5353 45.2983 56.4234 44.1717 55.0427 44.1627L21.032 43.9411C19.6514 43.9321 18.5248 45.0441 18.5158 46.4247C18.5068 47.8054 19.6188 48.932 20.9995 48.941L55.0101 49.1626C56.3908 49.1716 57.5173 48.0596 57.5263 46.6789Z" fill="#FA7E77"/>
<path fill-rule="evenodd" clip-rule="evenodd" d="M55.5438 42.1263C54.188 41.8655 53.3002 40.555 53.5609 39.1992L58.5608 13.197C58.8216 11.8411 60.1321 10.9533 61.4879 11.2141C62.8438 11.4748 63.7316 12.7853 63.4709 14.1412L58.4709 40.1433C58.2102 41.4992 56.8997 42.387 55.5438 42.1263Z" fill="#FA7E77"/>
<path fill-rule="evenodd" clip-rule="evenodd" d="M25.0158 56.169C26.9488 56.169 28.5158 54.602 28.5158 52.669C28.5158 50.736 26.9488 49.169 25.0158 49.169C23.0828 49.169 21.5158 50.736 21.5158 52.669C21.5158 54.602 23.0828 56.169 25.0158 56.169ZM25.0158 58.669C28.3295 58.669 31.0158 55.9827 31.0158 52.669C31.0158 49.3553 28.3295 46.669 25.0158 46.669C21.7021 46.669 19.0158 49.3553 19.0158 52.669C19.0158 55.9827 21.7021 58.669 25.0158 58.669Z" fill="#FA7E77"/>
<path fill-rule="evenodd" clip-rule="evenodd" d="M50.0158 56.169C51.9488 56.169 53.5158 54.602 53.5158 52.669C53.5158 50.736 51.9488 49.169 50.0158 49.169C48.0828 49.169 46.5158 50.736 46.5158 52.669C46.5158 54.602 48.0828 56.169 50.0158 56.169ZM50.0158 58.669C53.3295 58.669 56.0158 55.9827 56.0158 52.669C56.0158 49.3553 53.3295 46.669 50.0158 46.669C46.7021 46.669 44.0158 49.3553 44.0158 52.669C44.0158 55.9827 46.7021 58.669 50.0158 58.669Z" fill="#FA7E77"/>
</svg>
